#!OML:ASF F:\VICON\USERDATA\INSTALL\rory3\rory3.ASF
:FULLY-SPECIFIED
:DEGREES
218
root 0.0550244 16.5328 2.12369 -8.80398 2.30352 -1.56396
lowerback 10.3812 0.872263 -2.02509
upperback 0.428123 1.01332 1.62596
thorax -5.44538 0.571464 2.69322
lowerneck -13.5849 -5.23077 -10.383
upperneck 24.2844 -7.24605 9.06555
head 10.7665 -3.25816 4.04054
rclavicle 1.65116e-014 -3.57812e-015
rhumerus -46.3196 -16.8801 -74.739
rradius 29.7201
rwrist 12.3006
rhand -17.2393 11.2519
rfingers 7.12502
rthumb 9.00439 -18.5359
lclavicle 1.65116e-014 -3.57812e-015
lhumerus -41.4021 15.1942 84.6114
lradius 37.2578
lwrist 9.52092
lhand -22.3066 23.5867
lfingers 7.12502
lthumb 4.11272 53.5268
rfemur -17.0688 -1.36963 25.2957
rtibia 50.0557
rfoot -18.5883 -5.51268
rtoes 0.39289
lfemur -18.9404 -0.700536 -19.8092
ltibia 50.3025
lfoot -19.2643 -1.59727
ltoes 0.486038
219
root 0.0624798 16.6231 2.18809 -8.69092 2.23488 -1.617
lowerback 9.93566 0.777821 -1.80251
upperback 0.436049 0.922166 1.68057
thorax -5.17847 0.518458 2.64078
lowerneck -14.1281 -5.21476 -10.3842
upperneck 24.5314 -7.14611 8.91063
head 10.9478 -3.21573 3.99567
rclavicle 8.49804e-015 8.24956e-015
rhumerus -46.3701 -17.4551 -74.3308
rradius 29.6211
rwrist 11.5285
rhand -17.9408 12.6973
rfingers 7.12502
rthumb 8.32748 -17.1185
lclavicle 8.49804e-015 8.24956e-015
lhumerus -41.1297 15.4178 84.8309
lradius 37.2433
lwrist 10.0414
lhand -22.6224 24.1216
lfingers 7.12502
lthumb 3.80776 54.0673
rfemur -16.1155 -1.04626 25.3511
rtibia 48.4513
rfoot -18.0774 -5.66933
rtoes -0.00653853
lfemur -17.916 -1.32007 -19.8652
ltibia 48.7219
lfoot -18.6391 -0.983202
ltoes 0.385025
220
root 0.0720228 16.7154 2.2542 -8.39625 2.25598 -1.2402
lowerback 9.34009 0.671207 -1.99642
upperback 0.313964 0.761921 1.58431
thorax -4.96361 0.441515 2.67489
lowerneck -14.4233 -5.08159 -10.4043
upperneck 24.6383 -6.92991 8.91353
head 11.0217 -3.1114 4.03112
rclavicle 1.11816e-015 1.2921e-014
rhumerus -46.4914 -18.0109 -73.879
rradius 29.4445
rwrist 10.7267
rhand -18.4546 15.2819
rfingers 7.12502
rthumb 7.83162 -14.5531
lclavicle 1.11816e-015 1.2921e-014
lhumerus -41.1612 15.5824 84.8719
lradius 37.3114
lwrist 10.3238
lhand -22.9175 26.3409
lfingers 7.12502
lthumb 3.52281 56.2915
rfemur -15.2815 -0.829331 24.8833
rtibia 46.876
rfoot -17.7276 -5.64194
rtoes -0.0473046
lfemur -17.046 -1.98973 -20.4208
ltibia 47.1052
lfoot -17.9859 -0.349366
ltoes 0.507246
221
root 0.0795863 16.8032 2.31309 -8.07586 2.08283 -1.07215
lowerback 8.73178 0.644573 -1.99002
upperback 0.152103 0.733939 1.53815
thorax -4.78863 0.426626 2.62911
lowerneck -14.2675 -4.98156 -10.4207
upperneck 24.489 -6.80539 8.97746
head 10.9234 -3.05319 4.07473
rclavicle 1.00759e-014 1.59028e-014
rhumerus -46.6505 -18.4589 -73.4711
rradius 29.4161
rwrist 9.70568
rhand -17.9807 16.5809
rfingers 7.12502
rthumb 8.28892 -13.2365
lclavicle 1.00759e-014 1.59028e-014
lhumerus -41.2628 15.588 84.8195
lradius 37.2485
lwrist 10.4486
lhand -22.7145 26.8716
lfingers 7.12502
lthumb 3.71882 56.8189
rfemur -14.5077 -0.428812 24.7085
rtibia 45.3397
rfoot -17.2001 -5.75536
rtoes -0.401612
lfemur -16.2257 -2.4496 -20.6801
ltibia 45.5337
lfoot -17.4333 0.136659
ltoes 0.418445
222
root 0.0832263 16.8851 2.36149 -7.82719 1.88967 -1.17167
lowerback 8.24889 0.602763 -1.78749
upperback 0.138143 0.708693 1.62691
thorax -4.52877 0.407603 2.61238
lowerneck -14.4484 -4.94214 -10.4234
upperneck 24.3683 -6.71574 8.95481
head 10.9031 -3.01048 4.0747
rclavicle 5.34234e-016 4.96962e-015
rhumerus -46.5197 -18.566 -73.3137
rradius 29.5402
rwrist 8.27332
rhand -17.1808 16.5814
rfingers 7.12502
rthumb 9.06087 -13.204
lclavicle 5.34234e-016 4.96962e-015
lhumerus -40.9444 15.5802 84.9531
lradius 37.1188
lwrist 10.4469
lhand -22.2702 25.1377
lfingers 7.12502
lthumb 4.14781 55.0771
rfemur -13.7235 0.0208361 24.8418
rtibia 43.8354
rfoot -16.7067 -5.78317
rtoes -0.150644
lfemur -15.3928 -2.88966 -20.6104
ltibia 44.0204
lfoot -16.9671 0.484757
ltoes 0.719183
223
root 0.0876946 16.9617 2.40633 -7.52597 1.73311 -1.11543
lowerback 7.82332 0.520778 -1.70624
upperback 0.0937917 0.613233 1.65747
thorax -4.32953 0.357009 2.61105
lowerneck -15.0125 -4.88408 -10.3321
upperneck 24.5183 -6.58047 8.84026
head 11.047 -2.93943 4.03355
rclavicle -5.46658e-016 2.78299e-015
rhumerus -46.2379 -18.6364 -73.215
rradius 29.3979
rwrist 7.0635
rhand -16.5541 16.6168
rfingers 7.12502
rthumb 9.6656 -13.1415
lclavicle -5.46658e-016 2.78299e-015
lhumerus -40.5731 15.582 85.0765
lradius 36.9426
lwrist 9.87489
lhand -22.2149 25.5965
lfingers 7.12502
lthumb 4.20125 55.5348
rfemur -13.0285 0.384373 24.7694
rtibia 42.3436
rfoot -16.2648 -5.6296
rtoes 0.556054
lfemur -14.691 -3.36554 -20.7123
ltibia 42.5539
lfoot -16.4894 0.822763
ltoes 1.06511
224
root 0.094043 17.0365 2.46007 -7.30787 1.47109 -0.950959
lowerback 7.47325 0.502608 -1.68525
upperback -0.0219562 0.593785 1.62876
thorax -4.25145 0.346903 2.57249
lowerneck -15.5394 -4.8743 -10.2084
upperneck 24.8402 -6.51261 8.62768
head 11.2522 -2.90934 3.94499
rclavicle -9.93923e-017 1.43125e-014
rhumerus -46.1159 -18.8245 -72.9686
rradius 29.0898
rwrist 6.40627
rhand -15.9677 16.7859
rfingers 7.12502
rthumb 10.2313 -12.9453
lclavicle -9.93923e-017 1.43125e-014
lhumerus -40.5195 15.296 85.1625
lradius 36.9415
lwrist 9.09722
lhand -22.5926 27.0975
lfingers 7.12502
lthumb 3.83653 57.0428
rfemur -12.2067 0.757854 24.5771
rtibia 40.8608
rfoot -15.844 -5.51046
rtoes 0.60976
lfemur -13.9028 -3.69838 -20.9325
ltibia 41.1021
lfoot -16.089 1.19342
ltoes 1.43301
225
root 0.0983477 17.1064 2.51734 -7.18563 1.14745 -0.809191
lowerback 7.14123 0.549127 -1.71323
upperback -0.0693837 0.657978 1.64908
thorax -4.11834 0.37852 2.60351
lowerneck -15.7768 -4.8296 -10.2377
upperneck 24.845 -6.41264 8.61104
head 11.2904 -2.86301 3.9566
rclavicle -3.00662e-015 -1.39149e-015
rhumerus -45.951 -18.8326 -72.8086
rradius 28.9232
rwrist 5.78712
rhand -15.5106 16.7849
rfingers 7.12502
rthumb 10.6723 -12.9241
lclavicle -3.00662e-015 -1.39149e-015
lhumerus -40.6043 14.5338 85.488
lradius 37.3601
lwrist 8.41363
lhand -22.9489 27.5132
lfingers 7.12502
lthumb 3.49247 57.4644
rfemur -11.3377 1.17866 24.4546
rtibia 39.4412
rfoot -15.305 -5.5298
rtoes 0.0533493
lfemur -12.9653 -3.92464 -21.1132
ltibia 39.6261
lfoot -15.6579 1.50273
ltoes 1.98435
226
root 0.099749 17.171 2.5658 -6.95545 0.894803 -0.735836
lowerback 6.73168 0.554053 -1.73121
upperback -0.076143 0.670166 1.71646
thorax -3.89684 0.383116 2.68404
lowerneck -15.8283 -4.76294 -10.2657
upperneck 24.4496 -6.29336 8.67017
head 11.1413 -2.80247 3.99129
rclavicle -8.69683e-016 -7.95139e-016
rhumerus -45.6156 -18.6287 -72.8014
rradius 28.9046
rwrist 5.21922
rhand -14.9522 16.7567
rfingers 7.12502
rthumb 11.2108 -12.9238
lclavicle -8.69683e-016 -7.95139e-016
lhumerus -40.5875 13.7299 85.8556
lradius 37.7145
lwrist 7.96956
lhand -23.2663 27.8172
lfingers 7.12502
lthumb 3.18593 57.7731
rfemur -10.6734 1.53043 24.4082
rtibia 38.0994
rfoot -14.7257 -5.46729
rtoes 0.0774566
lfemur -12.1802 -4.11613 -21.1881
ltibia 38.164
lfoot -15.105 1.71725
ltoes 2.64031
227
root 0.10129 17.2281 2.61318 -6.70746 0.783952 -0.556297
lowerback 6.36968 0.480963 -1.79296
upperback -0.0936072 0.57127 1.69968
thorax -3.70589 0.332862 2.71245
lowerneck -16.106 -4.74412 -10.2312
upperneck 24.2414 -6.23484 8.67024
head 11.1102 -2.76559 3.9862
rclavicle -3.23025e-016 -1.39149e-014
rhumerus -45.406 -18.3368 -72.8851
rradius 29.0934
rwrist 4.80854
rhand -14.1728 16.7608
rfingers 7.12502
rthumb 11.9625 -12.8774
lclavicle -3.23025e-016 -1.39149e-014
lhumerus -40.3237 13.1726 85.9775
lradius 37.5623
lwrist 7.44886
lhand -23.3557 27.9095
lfingers 7.12502
lthumb 3.09955 57.8668
rfemur -10.0478 1.68078 24.1807
rtibia 36.8565
rfoot -14.3557 -5.25139
rtoes 1.06745
lfemur -11.4551 -4.28149 -21.3952
ltibia 36.7501
lfoot -14.5598 1.90532
ltoes 2.76731
228
root 0.109323 17.279 2.65893 -6.41184 0.73076 -0.184485
lowerback 6.01435 0.405274 -1.92067
upperback -0.154989 0.461038 1.57666
thorax -3.5629 0.278116 2.66796
lowerneck -16.3933 -4.72187 -10.1596
upperneck 24.1725 -6.16973 8.59484
head 11.1286 -2.73129 3.95111
rclavicle -9.7653e-015 2.62396e-014
rhumerus -45.23 -17.8997 -73.0817
rradius 29.2912
rwrist 4.31243
rhand -13.5656 16.5592
rfingers 7.12502
rthumb 12.5479 -13.044
lclavicle -9.7653e-015 2.62396e-014
lhumerus -40.1481 12.539 85.9873
lradius 37.6508
lwrist 6.56472
lhand -22.6012 27.8018
lfingers 7.12502
lthumb 3.82824 57.7471
rfemur -9.52431 1.67377 23.6691
rtibia 35.6833
rfoot -14.1296 -4.83432
rtoes 2.27454
lfemur -10.8401 -4.43844 -21.8415
ltibia 35.4063
lfoot -14.1079 1.95884
ltoes 2.71122
229
root 0.115477 17.327 2.69675 -6.11002 0.488007 0.04831
lowerback 5.67989 0.374886 -1.96859
upperback -0.240654 0.420203 1.52629
thorax -3.46095 0.257837 2.64699
lowerneck -16.5683 -4.64054 -10.0388
upperneck 24.1465 -6.03362 8.46607
head 11.1292 -2.6694 3.90095
rclavicle 1.21756e-015 0
rhumerus -44.9637 -17.2488 -73.3484
rradius 29.3935
rwrist 3.95266
rhand -13.1969 16.3811
rfingers 7.12502
rthumb 12.9034 -13.2
lclavicle 1.21756e-015 0
lhumerus -40.2235 11.917 85.9562
lradius 38.1653
lwrist 5.33371
lhand -21.4625 26.3777
lfingers 7.12502
lthumb 4.92781 56.3004
rfemur -9.12351 1.84935 23.362
rtibia 34.5643
rfoot -13.8516 -4.49055
rtoes 3.00255
lfemur -10.3046 -4.45792 -22.0929
ltibia 34.1593
lfoot -13.7791 1.99219
ltoes 2.27485
